FFmpeg version SVN-r0.5.9-4:0.5.9-0ubuntu0.10.04.3, Copyright (c) 2000-2009 Fabrice Bellard, et al.
  configuration: --extra-version=4:0.5.9-0ubuntu0.10.04.3 --prefix=/usr --enable-avfilter --enable-avfilter-lavf --enable-vdpau --enable-bzlib --enable-libgsm --enable-libschroedinger --enable-libspeex --enable-libtheora --enable-libvorbis --enable-pthreads --enable-zlib --disable-stripping --disable-vhook --enable-runtime-cpudetect --enable-gpl --enable-postproc --enable-swscale --enable-x11grab --enable-libdc1394 --enable-shared --disable-static
  libavutil     49.15. 0 / 49.15. 0
  libavcodec    52.20. 1 / 52.20. 1
  libavformat   52.31. 0 / 52.31. 0
  libavdevice   52. 1. 0 / 52. 1. 0
  libavfilter    0. 4. 0 /  0. 4. 0
  libswscale     0. 7. 1 /  0. 7. 1
  libpostproc   51. 2. 0 / 51. 2. 0
  built on Jan 24 2013 19:42:59, gcc: 4.4.3

Seems stream 0 codec frame rate differs from container frame rate: 60.00 (60/1) -> 30.00 (30/1)
Input #0, mov,mp4,m4a,3gp,3g2,mj2, from '/var/www/search-interface/media/video/obama-climate-change.mp4':
  Duration: 00:02:09.41, start: 0.000000, bitrate: 1044 kb/s
    Stream #0.0(und): Video: h264, yuv420p, 1280x720, 30 tbr, 30 tbn, 60 tbc
    Stream #0.1(und): Audio: mp3, 44100 Hz, stereo, s16, 128 kb/s
Output #0, mp4, to '/var/www/search-interface/media/video/obama-climate-change.mp4_tmp.mp4':
    Stream #0.0(und): Video: libx264, yuv420p, 1280x720, q=10-51, pass 1, 512 kb/s, 90k tbn, 30 tbc
Stream mapping:
  Stream #0.0 -> #0.0
[libx264 @ 0x17b3230]using cpu capabilities: MMX2 SSE2Fast SSSE3 FastShuffle SSE4.2
[libx264 @ 0x17b3230]profile High, level 3.1
Press [q] to stop encoding
frame=   20 fps=  0 q=42.0 size=      21kB time=0.30 bitrate= 571.1kbits/s    frame=   33 fps= 32 q=39.0 size=      43kB time=0.73 bitrate= 480.9kbits/s    frame=   44 fps= 28 q=38.0 size=      65kB time=1.10 bitrate= 481.8kbits/s    frame=   56 fps= 27 q=38.0 size=      87kB time=1.50 bitrate= 476.7kbits/s    frame=   68 fps= 26 q=37.0 size=     108kB time=1.90 bitrate= 463.9kbits/s    frame=   79 fps= 25 q=35.0 size=     127kB time=2.27 bitrate= 459.5kbits/s    frame=   92 fps= 25 q=36.0 size=     150kB time=2.70 bitrate= 456.0kbits/s    frame=  104 fps= 25 q=36.0 size=     171kB time=3.10 bitrate= 451.2kbits/s    frame=  117 fps= 25 q=37.0 size=     195kB time=3.53 bitrate= 451.8kbits/s    frame=  129 fps= 25 q=36.0 size=     214kB time=3.93 bitrate= 446.1kbits/s    frame=  142 fps= 25 q=34.0 size=     236kB time=4.37 bitrate= 442.0kbits/s    frame=  154 fps= 24 q=33.0 size=     256kB time=4.77 bitrate= 440.5kbits/s    frame=  167 fps= 24 q=34.0 size=     279kB time=5.20 bitrate= 439.6kbits/s    frame=  179 fps= 24 q=34.0 size=     299kB time=5.60 bitrate= 436.9kbits/s    frame=  191 fps= 24 q=35.0 size=     324kB time=6.00 bitrate= 443.0kbits/s    frame=  203 fps= 24 q=35.0 size=     352kB time=6.40 bitrate= 450.4kbits/s    frame=  215 fps= 24 q=34.0 size=     378kB time=6.80 bitrate= 455.2kbits/s    frame=  227 fps= 24 q=34.0 size=     402kB time=7.20 bitrate= 457.1kbits/s    frame=  239 fps= 24 q=34.0 size=     427kB time=7.60 bitrate= 460.1kbits/s    frame=  251 fps= 24 q=34.0 size=     451kB time=8.00 bitrate= 461.5kbits/s    frame=  264 fps= 24 q=33.0 size=     488kB time=8.43 bitrate= 473.9kbits/s    frame=  278 fps= 24 q=34.0 size=     510kB time=8.90 bitrate= 469.7kbits/s    frame=  288 fps= 24 q=32.0 size=     526kB time=9.23 bitrate= 466.9kbits/s    frame=  300 fps= 24 q=33.0 size=     551kB time=9.63 bitrate= 468.2kbits/s    frame=  312 fps= 24 q=32.0 size=     569kB time=10.03 bitrate= 464.3kbits/s    frame=  325 fps= 24 q=33.0 size=     592kB time=10.47 bitrate= 463.1kbits/s    frame=  338 fps= 24 q=34.0 size=     612kB time=10.90 bitrate= 459.7kbits/s    frame=  350 fps= 24 q=34.0 size=     633kB time=11.30 bitrate= 458.7kbits/s    frame=  362 fps= 24 q=35.0 size=     659kB time=11.70 bitrate= 461.2kbits/s    frame=  374 fps= 24 q=35.0 size=     682kB time=12.10 bitrate= 461.8kbits/s    frame=  386 fps= 24 q=34.0 size=     705kB time=12.50 bitrate= 461.9kbits/s    frame=  399 fps= 24 q=34.0 size=     729kB time=12.93 bitrate= 462.0kbits/s    frame=  412 fps= 24 q=32.0 size=     750kB time=13.37 bitrate= 459.7kbits/s    frame=  424 fps= 24 q=32.0 size=     772kB time=13.77 bitrate= 459.4kbits/s    frame=  436 fps= 24 q=32.0 size=     795kB time=14.17 bitrate= 459.5kbits/s    frame=  449 fps= 24 q=33.0 size=     817kB time=14.60 bitrate= 458.7kbits/s    frame=  462 fps= 24 q=34.0 size=     841kB time=15.03 bitrate= 458.1kbits/s    frame=  474 fps= 24 q=34.0 size=     862kB time=15.43 bitrate= 457.5kbits/s    frame=  487 fps= 24 q=33.0 size=     884kB time=15.87 bitrate= 456.2kbits/s    frame=  499 fps= 24 q=33.0 size=     904kB time=16.27 bitrate= 455.1kbits/s    frame=  512 fps= 24 q=35.0 size=     946kB time=16.70 bitrate= 464.2kbits/s    frame=  525 fps= 24 q=33.0 size=     970kB time=17.13 bitrate= 463.6kbits/s    frame=  537 fps= 24 q=33.0 size=     993kB time=17.53 bitrate= 464.2kbits/s    frame=  549 fps= 24 q=33.0 size=    1016kB time=17.93 bitrate= 464.3kbits/s    frame=  561 fps= 24 q=33.0 size=    1041kB time=18.33 bitrate= 465.2kbits/s    frame=  572 fps= 24 q=33.0 size=    1066kB time=18.70 bitrate= 466.8kbits/s    frame=  583 fps= 24 q=32.0 size=    1087kB time=19.07 bitrate= 467.2kbits/s    frame=  595 fps= 24 q=33.0 size=    1116kB time=19.47 bitrate= 469.5kbits/s    frame=  607 fps= 24 q=32.0 size=    1141kB time=19.87 bitrate= 470.7kbits/s    frame=  619 fps= 23 q=32.0 size=    1164kB time=20.27 bitrate= 470.4kbits/s    frame=  631 fps= 23 q=32.0 size=    1189kB time=20.67 bitrate= 471.3kbits/s    frame=  643 fps= 23 q=32.0 size=    1212kB time=21.07 bitrate= 471.4kbits/s    frame=  655 fps= 23 q=32.0 size=    1234kB time=21.47 bitrate= 471.0kbits/s    frame=  667 fps= 23 q=31.0 size=    1256kB time=21.87 bitrate= 470.7kbits/s    frame=  679 fps= 23 q=32.0 size=    1280kB time=22.27 bitrate= 470.9kbits/s    frame=  691 fps= 23 q=32.0 size=    1302kB time=22.67 bitrate= 470.6kbits/s    frame=  703 fps= 23 q=32.0 size=    1324kB time=23.07 bitrate= 470.2kbits/s    frame=  715 fps= 23 q=32.0 size=    1347kB time=23.47 bitrate= 470.2kbits/s    frame=  728 fps= 23 q=32.0 size=    1368kB time=23.90 bitrate= 468.9kbits/s    frame=  740 fps= 23 q=32.0 size=    1392kB time=24.30 bitrate= 469.1kbits/s    frame=  752 fps= 23 q=33.0 size=    1417kB time=24.70 bitrate= 469.9kbits/s    frame=  766 fps= 23 q=35.0 size=    1467kB time=25.17 bitrate= 477.5kbits/s    frame=  779 fps= 24 q=33.0 size=    1492kB time=25.60 bitrate= 477.5kbits/s    frame=  791 fps= 23 q=33.0 size=    1520kB time=26.00 bitrate= 478.8kbits/s    frame=  803 fps= 23 q=34.0 size=    1551kB time=26.40 bitrate= 481.3kbits/s    frame=  815 fps= 23 q=33.0 size=    1574kB time=26.80 bitrate= 481.3kbits/s    frame=  827 fps= 23 q=33.0 size=    1597kB time=27.20 bitrate= 481.0kbits/s    frame=  839 fps= 23 q=33.0 size=    1620kB time=27.60 bitrate= 480.9kbits/s    frame=  851 fps= 23 q=33.0 size=    1643kB time=28.00 bitrate= 480.8kbits/s    frame=  864 fps= 23 q=31.0 size=    1666kB time=28.43 bitrate= 479.9kbits/s    frame=  877 fps= 24 q=31.0 size=    1691kB time=28.87 bitrate= 479.9kbits/s    frame=  890 fps= 24 q=32.0 size=    1713kB time=29.30 bitrate= 478.8kbits/s    frame=  903 fps= 24 q=32.0 size=    1735kB time=29.73 bitrate= 478.0kbits/s    frame=  916 fps= 24 q=30.0 size=    1756kB time=30.17 bitrate= 476.8kbits/s    frame=  929 fps= 24 q=31.0 size=    1783kB time=30.60 bitrate= 477.2kbits/s    frame=  941 fps= 24 q=32.0 size=    1807kB time=31.00 bitrate= 477.6kbits/s    frame=  953 fps= 24 q=32.0 size=    1832kB time=31.40 bitrate= 478.0kbits/s    frame=  965 fps= 24 q=32.0 size=    1855kB time=31.80 bitrate= 478.0kbits/s    frame=  977 fps= 23 q=32.0 size=    1881kB time=32.20 bitrate= 478.5kbits/s    frame=  990 fps= 24 q=32.0 size=    1904kB time=32.63 bitrate= 477.8kbits/s    frame= 1002 fps= 24 q=32.0 size=    1926kB time=33.03 bitrate= 477.6kbits/s    frame= 1016 fps= 24 q=35.0 size=    1977kB time=33.50 bitrate= 483.3kbits/s    frame= 1027 fps= 24 q=32.0 size=    2000kB time=33.87 bitrate= 483.8kbits/s    frame= 1039 fps= 24 q=31.0 size=    2024kB time=34.27 bitrate= 483.8kbits/s    frame= 1051 fps= 24 q=32.0 size=    2047kB time=34.67 bitrate= 483.6kbits/s    frame= 1063 fps= 24 q=32.0 size=    2070kB time=35.07 bitrate= 483.5kbits/s    frame= 1076 fps= 24 q=32.0 size=    2092kB time=35.50 bitrate= 482.8kbits/s    frame= 1089 fps= 24 q=31.0 size=    2112kB time=35.93 bitrate= 481.6kbits/s    frame= 1102 fps= 24 q=31.0 size=    2134kB time=36.37 bitrate= 480.7kbits/s    frame= 1114 fps= 24 q=30.0 size=    2159kB time=36.77 bitrate= 481.0kbits/s    frame= 1126 fps= 24 q=30.0 size=    2183kB time=37.17 bitrate= 481.1kbits/s    frame= 1138 fps= 24 q=30.0 size=    2206kB time=37.57 bitrate= 480.9kbits/s    frame= 1151 fps= 24 q=32.0 size=    2234kB time=38.00 bitrate= 481.7kbits/s    frame= 1163 fps= 24 q=32.0 size=    2261kB time=38.40 bitrate= 482.4kbits/s    frame= 1175 fps= 24 q=32.0 size=    2290kB time=38.80 bitrate= 483.6kbits/s    frame= 1187 fps= 24 q=32.0 size=    2320kB time=39.20 bitrate= 484.8kbits/s    frame= 1199 fps= 24 q=32.0 size=    2347kB time=39.60 bitrate= 485.6kbits/s    frame= 1211 fps= 24 q=33.0 size=    2379kB time=40.00 bitrate= 487.2kbits/s    frame= 1223 fps= 23 q=33.0 size=    2412kB time=40.40 bitrate= 489.1kbits/s    frame= 1234 fps= 23 q=32.0 size=    2438kB time=40.77 bitrate= 489.9kbits/s    frame= 1243 fps= 23 q=34.0 size=    2471kB time=41.07 bitrate= 492.9kbits/s    frame= 1254 fps= 23 q=33.0 size=    2500kB time=41.43 bitrate= 494.3kbits/s    frame= 1265 fps= 23 q=34.0 size=    2548kB time=41.80 bitrate= 499.4kbits/s    frame= 1276 fps= 23 q=33.0 size=    2581kB time=42.17 bitrate= 501.4kbits/s    frame= 1286 fps= 23 q=35.0 size=    2612kB time=42.50 bitrate= 503.4kbits/s    frame= 1297 fps= 23 q=34.0 size=    2644kB time=42.87 bitrate= 505.4kbits/s    frame= 1309 fps= 23 q=34.0 size=    2679kB time=43.27 bitrate= 507.2kbits/s    frame= 1321 fps= 23 q=34.0 size=    2708kB time=43.67 bitrate= 508.1kbits/s    frame= 1332 fps= 23 q=33.0 size=    2732kB time=44.03 bitrate= 508.3kbits/s    frame= 1343 fps= 23 q=35.0 size=    2763kB time=44.40 bitrate= 509.8kbits/s    frame= 1354 fps= 23 q=35.0 size=    2789kB time=44.77 bitrate= 510.3kbits/s    frame= 1365 fps= 23 q=34.0 size=    2816kB time=45.13 bitrate= 511.2kbits/s    frame= 1377 fps= 23 q=34.0 size=    2849kB time=45.53 bitrate= 512.5kbits/s    frame= 1389 fps= 23 q=33.0 size=    2881kB time=45.93 bitrate= 513.8kbits/s    frame= 1399 fps= 23 q=34.0 size=    2908kB time=46.27 bitrate= 514.9kbits/s    frame= 1407 fps= 23 q=37.0 size=    2966kB time=46.53 bitrate= 522.1kbits/s    frame= 1417 fps= 23 q=35.0 size=    2996kB time=46.87 bitrate= 523.6kbits/s    frame= 1429 fps= 23 q=34.0 size=    3025kB time=47.27 bitrate= 524.3kbits/s    frame= 1441 fps= 23 q=34.0 size=    3052kB time=47.67 bitrate= 524.5kbits/s    frame= 1453 fps= 23 q=33.0 size=    3075kB time=48.07 bitrate= 524.0kbits/s    frame= 1466 fps= 23 q=34.0 size=    3098kB time=48.50 bitrate= 523.3kbits/s    frame= 1478 fps= 23 q=34.0 size=    3122kB time=48.90 bitrate= 523.0kbits/s    frame= 1490 fps= 23 q=34.0 size=    3144kB time=49.30 bitrate= 522.5kbits/s    frame= 1503 fps= 23 q=34.0 size=    3166kB time=49.73 bitrate= 521.4kbits/s    frame= 1517 fps= 23 q=35.0 size=    3207kB time=50.20 bitrate= 523.4kbits/s    frame= 1530 fps= 23 q=32.0 size=    3229kB time=50.63 bitrate= 522.4kbits/s    frame= 1543 fps= 23 q=32.0 size=    3255kB time=51.07 bitrate= 522.2kbits/s    frame= 1555 fps= 23 q=32.0 size=    3278kB time=51.47 bitrate= 521.8kbits/s    frame= 1566 fps= 23 q=32.0 size=    3307kB time=51.83 bitrate= 522.6kbits/s    frame= 1577 fps= 23 q=35.0 size=    3340kB time=52.20 bitrate= 524.2kbits/s    frame= 1589 fps= 23 q=34.0 size=    3365kB time=52.60 bitrate= 524.1kbits/s    frame= 1601 fps= 23 q=33.0 size=    3388kB time=53.00 bitrate= 523.7kbits/s    frame= 1613 fps= 23 q=33.0 size=    3410kB time=53.40 bitrate= 523.0kbits/s    frame= 1626 fps= 23 q=31.0 size=    3431kB time=53.83 bitrate= 522.1kbits/s    frame= 1638 fps= 23 q=31.0 size=    3454kB time=54.23 bitrate= 521.8kbits/s    frame= 1651 fps= 23 q=33.0 size=    3481kB time=54.67 bitrate= 521.6kbits/s    frame= 1663 fps= 23 q=32.0 size=    3502kB time=55.07 bitrate= 521.0kbits/s    frame= 1676 fps= 23 q=33.0 size=    3524kB time=55.50 bitrate= 520.2kbits/s    frame= 1689 fps= 23 q=33.0 size=    3544kB time=55.93 bitrate= 519.1kbits/s    frame= 1702 fps= 23 q=31.0 size=    3566kB time=56.37 bitrate= 518.2kbits/s    frame= 1714 fps= 23 q=31.0 size=    3587kB time=56.77 bitrate= 517.6kbits/s    frame= 1727 fps= 23 q=32.0 size=    3611kB time=57.20 bitrate= 517.2kbits/s    frame= 1739 fps= 23 q=33.0 size=    3639kB time=57.60 bitrate= 517.5kbits/s    frame= 1751 fps= 23 q=33.0 size=    3667kB time=58.00 bitrate= 517.9kbits/s    frame= 1765 fps= 23 q=35.0 size=    3719kB time=58.47 bitrate= 521.1kbits/s    frame= 1777 fps= 23 q=33.0 size=    3747kB time=58.87 bitrate= 521.4kbits/s    frame= 1789 fps= 23 q=34.0 size=    3778kB time=59.27 bitrate= 522.2kbits/s    frame= 1800 fps= 23 q=33.0 size=    3808kB time=59.63 bitrate= 523.1kbits/s    frame= 1809 fps= 23 q=35.0 size=    3840kB time=59.93 bitrate= 524.9kbits/s    frame= 1821 fps= 23 q=34.0 size=    3871kB time=60.33 bitrate= 525.6kbits/s    frame= 1832 fps= 23 q=33.0 size=    3897kB time=60.70 bitrate= 525.9kbits/s    frame= 1844 fps= 23 q=33.0 size=    3922kB time=61.10 bitrate= 525.8kbits/s    frame= 1855 fps= 23 q=35.0 size=    3946kB time=61.47 bitrate= 525.8kbits/s    frame= 1867 fps= 23 q=35.0 size=    3971kB time=61.87 bitrate= 525.8kbits/s    frame= 1878 fps= 23 q=35.0 size=    3995kB time=62.23 bitrate= 525.9kbits/s    frame= 1890 fps= 23 q=35.0 size=    4022kB time=62.63 bitrate= 526.1kbits/s    frame= 1902 fps= 23 q=34.0 size=    4043kB time=63.03 bitrate= 525.4kbits/s    frame= 1914 fps= 23 q=34.0 size=    4065kB time=63.43 bitrate= 525.0kbits/s    frame= 1926 fps= 23 q=34.0 size=    4087kB time=63.83 bitrate= 524.5kbits/s    frame= 1939 fps= 23 q=34.0 size=    4112kB time=64.27 bitrate= 524.1kbits/s    frame= 1951 fps= 23 q=34.0 size=    4136kB time=64.67 bitrate= 523.9kbits/s    frame= 1964 fps= 23 q=32.0 size=    4159kB time=65.10 bitrate= 523.4kbits/s    frame= 1977 fps= 23 q=33.0 size=    4183kB time=65.53 bitrate= 523.0kbits/s    frame= 1990 fps= 23 q=34.0 size=    4207kB time=65.97 bitrate= 522.4kbits/s    frame= 2002 fps= 23 q=35.0 size=    4231kB time=66.37 bitrate= 522.2kbits/s    frame= 2016 fps= 23 q=35.0 size=    4273kB time=66.83 bitrate= 523.7kbits/s    frame= 2029 fps= 23 q=33.0 size=    4295kB time=67.27 bitrate= 523.0kbits/s    frame= 2041 fps= 23 q=33.0 size=    4317kB time=67.67 bitrate= 522.7kbits/s    frame= 2053 fps= 23 q=33.0 size=    4339kB time=68.07 bitrate= 522.2kbits/s    frame= 2065 fps= 23 q=34.0 size=    4365kB time=68.47 bitrate= 522.2kbits/s    frame= 2076 fps= 23 q=33.0 size=    4386kB time=68.83 bitrate= 522.0kbits/s    frame= 2088 fps= 23 q=33.0 size=    4408kB time=69.23 bitrate= 521.6kbits/s    frame= 2100 fps= 23 q=34.0 size=    4432kB time=69.63 bitrate= 521.4kbits/s    frame= 2112 fps= 23 q=34.0 size=    4457kB time=70.03 bitrate= 521.4kbits/s    frame= 2124 fps= 23 q=34.0 size=    4480kB time=70.43 bitrate= 521.1kbits/s    frame= 2136 fps= 23 q=34.0 size=    4509kB time=70.83 bitrate= 521.5kbits/s    frame= 2147 fps= 23 q=33.0 size=    4534kB time=71.20 bitrate= 521.6kbits/s    frame= 2158 fps= 23 q=33.0 size=    4562kB time=71.57 bitrate= 522.2kbits/s    frame= 2167 fps= 23 q=34.0 size=    4595kB time=71.87 bitrate= 523.8kbits/s    frame= 2177 fps= 23 q=35.0 size=    4632kB time=72.20 bitrate= 525.5kbits/s    frame= 2187 fps= 23 q=35.0 size=    4674kB time=72.53 bitrate= 527.9kbits/s    frame= 2197 fps= 23 q=36.0 size=    4711kB time=72.87 bitrate= 529.6kbits/s    frame= 2207 fps= 23 q=35.0 size=    4749kB time=73.20 bitrate= 531.4kbits/s    frame= 2218 fps= 23 q=34.0 size=    4786kB time=73.57 bitrate= 532.9kbits/s    frame= 2228 fps= 23 q=36.0 size=    4826kB time=73.90 bitrate= 534.9kbits/s    frame= 2239 fps= 23 q=35.0 size=    4866kB time=74.27 bitrate= 536.7kbits/s    frame= 2249 fps= 23 q=36.0 size=    4904kB time=74.60 bitrate= 538.5kbits/s    frame= 2260 fps= 23 q=35.0 size=    4955kB time=74.97 bitrate= 541.5kbits/s    frame= 2271 fps= 23 q=36.0 size=    4990kB time=75.33 bitrate= 542.6kbits/s    frame= 2281 fps= 23 q=35.0 size=    5021kB time=75.67 bitrate= 543.6kbits/s    frame= 2293 fps= 23 q=35.0 size=    5052kB time=76.07 bitrate= 544.1kbits/s    frame= 2305 fps= 23 q=35.0 size=    5085kB time=76.47 bitrate= 544.8kbits/s    frame= 2317 fps= 23 q=35.0 size=    5115kB time=76.87 bitrate= 545.1kbits/s    frame= 2329 fps= 23 q=35.0 size=    5146kB time=77.27 bitrate= 545.6kbits/s    frame= 2340 fps= 23 q=34.0 size=    5172kB time=77.63 bitrate= 545.7kbits/s    frame= 2351 fps= 23 q=36.0 size=    5196kB time=78.00 bitrate= 545.7kbits/s    frame= 2362 fps= 23 q=36.0 size=    5222kB time=78.37 bitrate= 545.9kbits/s    frame= 2373 fps= 23 q=35.0 size=    5248kB time=78.73 bitrate= 546.1kbits/s    frame= 2385 fps= 23 q=34.0 size=    5273kB time=79.13 bitrate= 545.9kbits/s    frame= 2398 fps= 23 q=35.0 size=    5296kB time=79.57 bitrate= 545.2kbits/s    frame= 2411 fps= 23 q=35.0 size=    5321kB time=80.00 bitrate= 544.8kbits/s    frame= 2424 fps= 23 q=33.0 size=    5342kB time=80.43 bitrate= 544.1kbits/s    frame= 2436 fps= 23 q=33.0 size=    5365kB time=80.83 bitrate= 543.7kbits/s    frame= 2449 fps= 23 q=34.0 size=    5389kB time=81.27 bitrate= 543.2kbits/s    frame= 2461 fps= 23 q=33.0 size=    5408kB time=81.67 bitrate= 542.5kbits/s    frame= 2473 fps= 23 q=34.0 size=    5430kB time=82.07 bitrate= 542.0kbits/s    frame= 2486 fps= 23 q=34.0 size=    5451kB time=82.50 bitrate= 541.2kbits/s    frame= 2498 fps= 23 q=34.0 size=    5470kB time=82.90 bitrate= 540.6kbits/s    frame= 2511 fps= 23 q=35.0 size=    5509kB time=83.33 bitrate= 541.5kbits/s    frame= 2525 fps= 23 q=34.0 size=    5528kB time=83.80 bitrate= 540.4kbits/s    frame= 2538 fps= 23 q=32.0 size=    5548kB time=84.23 bitrate= 539.6kbits/s    frame= 2551 fps= 23 q=33.0 size=    5571kB time=84.67 bitrate= 539.0kbits/s    frame= 2564 fps= 23 q=34.0 size=    5596kB time=85.10 bitrate= 538.7kbits/s    frame= 2576 fps= 23 q=34.0 size=    5616kB time=85.50 bitrate= 538.1kbits/s    frame= 2588 fps= 23 q=33.0 size=    5635kB time=85.90 bitrate= 537.4kbits/s    frame= 2600 fps= 23 q=34.0 size=    5658kB time=86.30 bitrate= 537.1kbits/s    frame= 2612 fps= 23 q=34.0 size=    5681kB time=86.70 bitrate= 536.7kbits/s    frame= 2625 fps= 23 q=33.0 size=    5702kB time=87.13 bitrate= 536.1kbits/s    frame= 2637 fps= 23 q=34.0 size=    5722kB time=87.53 bitrate= 535.5kbits/s    frame= 2650 fps= 23 q=31.0 size=    5741kB time=87.97 bitrate= 534.7kbits/s    frame= 2663 fps= 23 q=33.0 size=    5768kB time=88.40 bitrate= 534.5kbits/s    frame= 2675 fps= 23 q=33.0 size=    5790kB time=88.80 bitrate= 534.2kbits/s    frame= 2688 fps= 23 q=34.0 size=    5815kB time=89.23 bitrate= 533.8kbits/s    frame= 2701 fps= 23 q=34.0 size=    5845kB time=89.67 bitrate= 534.0kbits/s    frame= 2713 fps= 23 q=34.0 size=    5871kB time=90.07 bitrate= 534.0kbits/s    frame= 2725 fps= 23 q=35.0 size=    5897kB time=90.47 bitrate= 534.0kbits/s    frame= 2738 fps= 23 q=32.0 size=    5921kB time=90.90 bitrate= 533.6kbits/s    frame= 2751 fps= 23 q=33.0 size=    5947kB time=91.33 bitrate= 533.4kbits/s    frame= 2765 fps= 23 q=35.0 size=    5994kB time=91.80 bitrate= 534.9kbits/s    frame= 2778 fps= 23 q=34.0 size=    6018kB time=92.23 bitrate= 534.5kbits/s    frame= 2791 fps= 23 q=33.0 size=    6040kB time=92.67 bitrate= 533.9kbits/s    frame= 2803 fps= 23 q=33.0 size=    6062kB time=93.07 bitrate= 533.6kbits/s    frame= 2816 fps= 23 q=32.0 size=    6084kB time=93.50 bitrate= 533.0kbits/s    frame= 2828 fps= 23 q=32.0 size=    6104kB time=93.90 bitrate= 532.6kbits/s    frame= 2840 fps= 23 q=31.0 size=    6126kB time=94.30 bitrate= 532.2kbits/s    frame= 2853 fps= 23 q=33.0 size=    6153kB time=94.73 bitrate= 532.1kbits/s    frame= 2866 fps= 23 q=34.0 size=    6177kB time=95.17 bitrate= 531.7kbits/s    frame= 2879 fps= 23 q=34.0 size=    6202kB time=95.60 bitrate= 531.5kbits/s    frame= 2891 fps= 23 q=34.0 size=    6228kB time=96.00 bitrate= 531.5kbits/s    frame= 2903 fps= 23 q=34.0 size=    6250kB time=96.40 bitrate= 531.1kbits/s    frame= 2915 fps= 23 q=34.0 size=    6271kB time=96.80 bitrate= 530.7kbits/s    frame= 2927 fps= 23 q=34.0 size=    6295kB time=97.20 bitrate= 530.6kbits/s    frame= 2939 fps= 23 q=33.0 size=    6316kB time=97.60 bitrate= 530.1kbits/s    frame= 2951 fps= 23 q=34.0 size=    6341kB time=98.00 bitrate= 530.1kbits/s    frame= 2963 fps= 23 q=34.0 size=    6366kB time=98.40 bitrate= 529.9kbits/s    frame= 2975 fps= 23 q=34.0 size=    6387kB time=98.80 bitrate= 529.6kbits/s    frame= 2987 fps= 23 q=34.0 size=    6411kB time=99.20 bitrate= 529.4kbits/s    frame= 2999 fps= 23 q=34.0 size=    6434kB time=99.60 bitrate= 529.2kbits/s    frame= 3012 fps= 23 q=35.0 size=    6475kB time=100.03 bitrate= 530.3kbits/s    frame= 3026 fps= 23 q=31.0 size=    6495kB time=100.50 bitrate= 529.5kbits/s    frame= 3039 fps= 23 q=32.0 size=    6518kB time=100.93 bitrate= 529.0kbits/s    frame= 3052 fps= 23 q=33.0 size=    6541kB time=101.37 bitrate= 528.6kbits/s    frame= 3065 fps= 23 q=33.0 size=    6562kB time=101.80 bitrate= 528.0kbits/s    frame= 3076 fps= 23 q=33.0 size=    6581kB time=102.17 bitrate= 527.7kbits/s    frame= 3088 fps= 23 q=34.0 size=    6601kB time=102.57 bitrate= 527.2kbits/s    frame= 3100 fps= 23 q=34.0 size=    6628kB time=102.97 bitrate= 527.3kbits/s    frame= 3112 fps= 23 q=34.0 size=    6653kB time=103.37 bitrate= 527.2kbits/s    frame= 3124 fps= 23 q=34.0 size=    6680kB time=103.77 bitrate= 527.4kbits/s    frame= 3136 fps= 23 q=34.0 size=    6707kB time=104.17 bitrate= 527.4kbits/s    frame= 3148 fps= 23 q=34.0 size=    6728kB time=104.57 bitrate= 527.1kbits/s    frame= 3160 fps= 23 q=34.0 size=    6751kB time=104.97 bitrate= 526.9kbits/s    frame= 3173 fps= 23 q=33.0 size=    6772kB time=105.40 bitrate= 526.4kbits/s    frame= 3185 fps= 23 q=34.0 size=    6796kB time=105.80 bitrate= 526.2kbits/s    frame= 3199 fps= 23 q=32.0 size=    6819kB time=106.27 bitrate= 525.7kbits/s    frame= 3212 fps= 23 q=33.0 size=    6839kB time=106.70 bitrate= 525.1kbits/s    frame= 3225 fps= 23 q=32.0 size=    6859kB time=107.13 bitrate= 524.5kbits/s    frame= 3237 fps= 23 q=33.0 size=    6880kB time=107.53 bitrate= 524.1kbits/s    frame= 3250 fps= 23 q=31.0 size=    6901kB time=107.97 bitrate= 523.6kbits/s    frame= 3264 fps= 23 q=33.0 size=    6944kB time=108.43 bitrate= 524.6kbits/s    frame= 3277 fps= 23 q=32.0 size=    6966kB time=108.87 bitrate= 524.2kbits/s    frame= 3289 fps= 23 q=32.0 size=    6988kB time=109.27 bitrate= 523.9kbits/s    frame= 3301 fps= 23 q=33.0 size=    7014kB time=109.67 bitrate= 524.0kbits/s    frame= 3313 fps= 23 q=33.0 size=    7040kB time=110.07 bitrate= 523.9kbits/s    frame= 3326 fps= 23 q=33.0 size=    7061kB time=110.50 bitrate= 523.5kbits/s    frame= 3339 fps= 23 q=34.0 size=    7088kB time=110.93 bitrate= 523.4kbits/s    frame= 3352 fps= 23 q=32.0 size=    7115kB time=111.37 bitrate= 523.3kbits/s    frame= 3365 fps= 23 q=33.0 size=    7143kB time=111.80 bitrate= 523.4kbits/s    frame= 3377 fps= 23 q=34.0 size=    7167kB time=112.20 bitrate= 523.3kbits/s    frame= 3390 fps= 23 q=34.0 size=    7189kB time=112.63 bitrate= 522.9kbits/s    frame= 3403 fps= 23 q=34.0 size=    7211kB time=113.07 bitrate= 522.5kbits/s    frame= 3415 fps= 23 q=34.0 size=    7234kB time=113.47 bitrate= 522.3kbits/s    frame= 3427 fps= 23 q=34.0 size=    7254kB time=113.87 bitrate= 521.9kbits/s    frame= 3438 fps= 23 q=34.0 size=    7284kB time=114.23 bitrate= 522.4kbits/s    frame= 3449 fps= 23 q=35.0 size=    7327kB time=114.60 bitrate= 523.8kbits/s    frame= 3460 fps= 23 q=34.0 size=    7370kB time=114.97 bitrate= 525.2kbits/s    frame= 3470 fps= 23 q=36.0 size=    7415kB time=115.30 bitrate= 526.8kbits/s    frame= 3481 fps= 23 q=35.0 size=    7457kB time=115.67 bitrate= 528.1kbits/s    frame= 3492 fps= 23 q=34.0 size=    7496kB time=116.03 bitrate= 529.2kbits/s    frame= 3502 fps= 23 q=36.0 size=    7536kB time=116.37 bitrate= 530.5kbits/s    frame= 3514 fps= 23 q=34.0 size=    7593kB time=116.77 bitrate= 532.7kbits/s    frame= 3525 fps= 23 q=36.0 size=    7636kB time=117.13 bitrate= 534.1kbits/s    frame= 3535 fps= 23 q=35.0 size=    7675kB time=117.47 bitrate= 535.3kbits/s    frame= 3547 fps= 23 q=35.0 size=    7720kB time=117.87 bitrate= 536.6kbits/s    frame= 3559 fps= 23 q=35.0 size=    7764kB time=118.27 bitrate= 537.8kbits/s    frame= 3571 fps= 23 q=35.0 size=    7806kB time=118.67 bitrate= 538.9kbits/s    frame= 3583 fps= 23 q=35.0 size=    7849kB time=119.07 bitrate= 540.0kbits/s    frame= 3595 fps= 23 q=35.0 size=    7889kB time=119.47 bitrate= 541.0kbits/s    frame= 3607 fps= 23 q=35.0 size=    7932kB time=119.87 bitrate= 542.1kbits/s    frame= 3619 fps= 23 q=35.0 size=    7973kB time=120.27 bitrate= 543.1kbits/s    frame= 3631 fps= 23 q=35.0 size=    8012kB time=120.67 bitrate= 543.9kbits/s    frame= 3643 fps= 23 q=35.0 size=    8048kB time=121.07 bitrate= 544.6kbits/s    frame= 3655 fps= 23 q=35.0 size=    8081kB time=121.47 bitrate= 545.0kbits/s    frame= 3667 fps= 23 q=34.0 size=    8108kB time=121.87 bitrate= 545.1kbits/s    frame= 3679 fps= 23 q=34.0 size=    8132kB time=122.27 bitrate= 544.8kbits/s    frame= 3691 fps= 23 q=34.0 size=    8155kB time=122.67 bitrate= 544.6kbits/s    frame= 3704 fps= 23 q=34.0 size=    8177kB time=123.10 bitrate= 544.2kbits/s    frame= 3716 fps= 23 q=34.0 size=    8199kB time=123.50 bitrate= 543.9kbits/s    frame= 3728 fps= 23 q=35.0 size=    8223kB time=123.90 bitrate= 543.7kbits/s    frame= 3740 fps= 23 q=34.0 size=    8245kB time=124.30 bitrate= 543.4kbits/s    frame= 3752 fps= 23 q=34.0 size=    8264kB time=124.70 bitrate= 542.9kbits/s    frame= 3766 fps= 23 q=36.0 size=    8306kB time=125.17 bitrate= 543.6kbits/s    frame= 3779 fps= 23 q=34.0 size=    8328kB time=125.60 bitrate= 543.2kbits/s    frame= 3793 fps= 23 q=33.0 size=    8351kB time=126.07 bitrate= 542.7kbits/s    frame= 3806 fps= 23 q=34.0 size=    8373kB time=126.50 bitrate= 542.2kbits/s    frame= 3819 fps= 23 q=34.0 size=    8395kB time=126.93 bitrate= 541.8kbits/s    frame= 3832 fps= 23 q=32.0 size=    8414kB time=127.37 bitrate= 541.2kbits/s    frame= 3845 fps= 23 q=33.0 size=    8440kB time=127.80 bitrate= 541.0kbits/s    frame= 3858 fps= 23 q=34.0 size=    8460kB time=128.23 bitrate= 540.5kbits/s    frame= 3870 fps= 23 q=34.0 size=    8480kB time=128.63 bitrate= 540.0kbits/s    frame= 3881 fps= 23 q=-1.0 Lsize=    8572kB time=129.30 bitrate= 543.1kbits/s    
video:8511kB audio:0kB global headers:0kB muxing overhead 0.720905%
[libx264 @ 0x17b3230]frame I:16    Avg QP:28.03  size: 20177
[libx264 @ 0x17b3230]frame P:979   Avg QP:29.93  size:  4236
[libx264 @ 0x17b3230]frame B:2886  Avg QP:32.65  size:  1471
[libx264 @ 0x17b3230]consecutive B-frames:  0.4%  0.1%  0.1% 99.5%
[libx264 @ 0x17b3230]mb I  I16..4: 25.5% 64.7%  9.8%
[libx264 @ 0x17b3230]mb P  I16..4:  1.9%  2.4%  0.2%  P16..4: 38.7%  2.3%  0.2%  0.0%  0.0%    skip:54.3%
[libx264 @ 0x17b3230]mb B  I16..4:  0.1%  0.2%  0.0%  B16..8: 31.9%  0.1%  0.1%  direct: 0.1%  skip:67.5%  L0:40.2% L1:58.5% BI: 1.3%
[libx264 @ 0x17b3230]final ratefactor: 33.76
[libx264 @ 0x17b3230]8x8 transform intra:55.9% inter:90.8%
[libx264 @ 0x17b3230]direct mvs  spatial:33.3% temporal:66.7%
[libx264 @ 0x17b3230]coded y,uvDC,uvAC intra: 25.7% 40.7% 4.8% inter: 1.8% 2.4% 0.0%
[libx264 @ 0x17b3230]i16 v,h,dc,p: 39% 28% 16% 17%
[libx264 @ 0x17b3230]i8 v,h,dc,ddl,ddr,vr,hd,vl,hu: 18% 12% 43%  4%  5%  5%  4%  4%  4%
[libx264 @ 0x17b3230]i4 v,h,dc,ddl,ddr,vr,hd,vl,hu: 24% 30% 22%  4%  5%  6%  3%  4%  2%
[libx264 @ 0x17b3230]ref P L0: 63.7% 18.7% 13.1%  4.6%  0.0%
[libx264 @ 0x17b3230]ref B L0: 76.2% 18.4%  4.2%  1.3%
[libx264 @ 0x17b3230]ref B L1: 88.4% 11.6%
[libx264 @ 0x17b3230]kb/s:538.89
FFmpeg version SVN-r0.5.9-4:0.5.9-0ubuntu0.10.04.3, Copyright (c) 2000-2009 Fabrice Bellard, et al.
  configuration: --extra-version=4:0.5.9-0ubuntu0.10.04.3 --prefix=/usr --enable-avfilter --enable-avfilter-lavf --enable-vdpau --enable-bzlib --enable-libgsm --enable-libschroedinger --enable-libspeex --enable-libtheora --enable-libvorbis --enable-pthreads --enable-zlib --disable-stripping --disable-vhook --enable-runtime-cpudetect --enable-gpl --enable-postproc --enable-swscale --enable-x11grab --enable-libdc1394 --enable-shared --disable-static
  libavutil     49.15. 0 / 49.15. 0
  libavcodec    52.20. 1 / 52.20. 1
  libavformat   52.31. 0 / 52.31. 0
  libavdevice   52. 1. 0 / 52. 1. 0
  libavfilter    0. 4. 0 /  0. 4. 0
  libswscale     0. 7. 1 /  0. 7. 1
  libpostproc   51. 2. 0 / 51. 2. 0
  built on Jan 24 2013 19:42:59, gcc: 4.4.3

Seems stream 0 codec frame rate differs from container frame rate: 60.00 (60/1) -> 30.00 (30/1)
Input #0, mov,mp4,m4a,3gp,3g2,mj2, from '/var/www/search-interface/media/video/obama-climate-change.mp4':
  Duration: 00:02:09.41, start: 0.000000, bitrate: 1044 kb/s
    Stream #0.0(und): Video: h264, yuv420p, 1280x720, 30 tbr, 30 tbn, 60 tbc
    Stream #0.1(und): Audio: mp3, 44100 Hz, stereo, s16, 128 kb/s
Output #0, mp4, to '/var/www/search-interface/media/video/obama-climate-change.mp4_tmp.mp4':
    Stream #0.0(und): Video: libx264, yuv420p, 1280x720, q=10-51, pass 2, 512 kb/s, 90k tbn, 30 tbc
    Stream #0.1(und): Audio: libmp3lame, 44100 Hz, stereo, s16, 96 kb/s
Stream mapping:
  Stream #0.0 -> #0.0
  Stream #0.1 -> #0.1
[libx264 @ 0x1a90230]using cpu capabilities: MMX2 SSE2Fast SSSE3 FastShuffle SSE4.2
[libx264 @ 0x1a90230]profile High, level 3.1
Press [q] to stop encoding
frame=   16 fps=  0 q=37.0 size=      45kB time=0.33 bitrate=1104.1kbits/s    frame=   27 fps= 26 q=37.0 size=      76kB time=0.70 bitrate= 892.5kbits/s    frame=   38 fps= 24 q=35.0 size=     106kB time=1.07 bitrate= 810.5kbits/s    frame=   49 fps= 23 q=33.0 size=     134kB time=1.43 bitrate= 767.0kbits/s    frame=   60 fps= 23 q=35.0 size=     164kB time=1.80 bitrate= 747.5kbits/s    frame=   71 fps= 23 q=35.0 size=     189kB time=2.17 bitrate= 715.9kbits/s    frame=   83 fps= 23 q=35.0 size=     221kB time=2.57 bitrate= 704.0kbits/s    frame=   94 fps= 23 q=34.0 size=     246kB time=2.93 bitrate= 686.5kbits/s    frame=  106 fps= 23 q=34.0 size=     273kB time=3.33 bitrate= 671.1kbits/s    frame=  118 fps= 22 q=34.0 size=     305kB time=3.73 bitrate= 669.4kbits/s    frame=  130 fps= 22 q=34.0 size=     332kB time=4.13 bitrate= 657.2kbits/s    frame=  141 fps= 22 q=32.0 size=     357kB time=4.50 bitrate= 649.0kbits/s    frame=  153 fps= 22 q=32.0 size=     384kB time=4.90 bitrate= 642.2kbits/s    frame=  165 fps= 22 q=33.0 size=     411kB time=5.30 bitrate= 635.8kbits/s    frame=  177 fps= 23 q=33.0 size=     436kB time=5.70 bitrate= 626.4kbits/s    frame=  188 fps= 23 q=36.0 size=     466kB time=6.07 bitrate= 628.6kbits/s    frame=  199 fps= 22 q=36.0 size=     496kB time=6.43 bitrate= 631.2kbits/s    frame=  210 fps= 22 q=34.0 size=     522kB time=6.80 bitrate= 629.2kbits/s    frame=  221 fps= 22 q=33.0 size=     547kB time=7.17 bitrate= 624.8kbits/s    frame=  232 fps= 22 q=35.0 size=     574kB time=7.53 bitrate= 623.7kbits/s    frame=  243 fps= 22 q=35.0 size=     601kB time=7.90 bitrate= 623.5kbits/s    frame=  255 fps= 22 q=34.0 size=     646kB time=8.30 bitrate= 637.7kbits/s    frame=  269 fps= 23 q=34.0 size=     673kB time=8.77 bitrate= 628.8kbits/s    frame=  281 fps= 23 q=34.0 size=     697kB time=9.17 bitrate= 622.9kbits/s    frame=  292 fps= 23 q=33.0 size=     726kB time=9.53 bitrate= 623.9kbits/s    frame=  304 fps= 23 q=33.0 size=     751kB time=9.93 bitrate= 619.1kbits/s    frame=  316 fps= 23 q=32.0 size=     777kB time=10.33 bitrate= 616.4kbits/s    frame=  328 fps= 23 q=33.0 size=     802kB time=10.73 bitrate= 612.1kbits/s    frame=  340 fps= 23 q=33.0 size=     826kB time=11.13 bitrate= 608.0kbits/s    frame=  352 fps= 23 q=34.0 size=     855kB time=11.53 bitrate= 607.0kbits/s    frame=  363 fps= 23 q=33.0 size=     880kB time=11.90 bitrate= 606.0kbits/s    frame=  375 fps= 23 q=33.0 size=     905kB time=12.30 bitrate= 603.0kbits/s    frame=  386 fps= 23 q=35.0 size=     933kB time=12.67 bitrate= 603.4kbits/s    frame=  398 fps= 23 q=34.0 size=     959kB time=13.07 bitrate= 601.2kbits/s    frame=  410 fps= 23 q=34.0 size=     984kB time=13.47 bitrate= 598.5kbits/s    frame=  421 fps= 23 q=34.0 size=    1010kB time=13.83 bitrate= 597.9kbits/s    frame=  432 fps= 23 q=33.0 size=    1035kB time=14.20 bitrate= 597.3kbits/s    frame=  444 fps= 23 q=33.0 size=    1059kB time=14.60 bitrate= 594.1kbits/s    frame=  456 fps= 23 q=33.0 size=    1085kB time=15.00 bitrate= 592.5kbits/s    frame=  468 fps= 23 q=33.0 size=    1110kB time=15.40 bitrate= 590.5kbits/s    frame=  480 fps= 23 q=33.0 size=    1135kB time=15.80 bitrate= 588.5kbits/s    frame=  492 fps= 23 q=33.0 size=    1158kB time=16.20 bitrate= 585.7kbits/s    frame=  505 fps= 23 q=34.0 size=    1202kB time=16.63 bitrate= 592.2kbits/s    frame=  519 fps= 23 q=35.0 size=    1229kB time=17.10 bitrate= 588.6kbits/s    frame=  531 fps= 23 q=34.0 size=    1254kB time=17.50 bitrate= 587.0kbits/s    frame=  543 fps= 23 q=34.0 size=    1278kB time=17.90 bitrate= 585.0kbits/s    frame=  555 fps= 23 q=35.0 size=    1305kB time=18.30 bitrate= 584.0kbits/s    frame=  567 fps= 23 q=34.0 size=    1332kB time=18.70 bitrate= 583.5kbits/s    frame=  579 fps= 23 q=34.0 size=    1356kB time=19.10 bitrate= 581.7kbits/s    frame=  591 fps= 23 q=35.0 size=    1387kB time=19.50 bitrate= 582.6kbits/s    frame=  603 fps= 23 q=34.0 size=    1414kB time=19.90 bitrate= 582.0kbits/s    frame=  616 fps= 23 q=34.0 size=    1441kB time=20.33 bitrate= 580.4kbits/s    frame=  628 fps= 23 q=34.0 size=    1468kB time=20.73 bitrate= 580.1kbits/s    frame=  640 fps= 23 q=34.0 size=    1493kB time=21.13 bitrate= 578.8kbits/s    frame=  652 fps= 23 q=34.0 size=    1520kB time=21.53 bitrate= 578.3kbits/s    frame=  665 fps= 23 q=32.0 size=    1544kB time=21.97 bitrate= 575.7kbits/s    frame=  677 fps= 23 q=32.0 size=    1570kB time=22.37 bitrate= 575.0kbits/s    frame=  689 fps= 23 q=32.0 size=    1595kB time=22.77 bitrate= 574.0kbits/s    frame=  702 fps= 23 q=32.0 size=    1623kB time=23.20 bitrate= 573.3kbits/s    frame=  715 fps= 23 q=33.0 size=    1650kB time=23.63 bitrate= 571.9kbits/s    frame=  728 fps= 23 q=33.0 size=    1674kB time=24.07 bitrate= 569.9kbits/s    frame=  740 fps= 23 q=34.0 size=    1702kB time=24.47 bitrate= 569.8kbits/s    frame=  752 fps= 23 q=34.0 size=    1726kB time=24.87 bitrate= 568.7kbits/s    frame=  766 fps= 23 q=35.0 size=    1777kB time=25.33 bitrate= 574.6kbits/s    frame=  779 fps= 23 q=33.0 size=    1802kB time=25.77 bitrate= 572.8kbits/s    frame=  791 fps= 23 q=33.0 size=    1831kB time=26.17 bitrate= 573.1kbits/s    frame=  803 fps= 23 q=32.0 size=    1860kB time=26.57 bitrate= 573.7kbits/s    frame=  816 fps= 23 q=33.0 size=    1891kB time=27.00 bitrate= 573.6kbits/s    frame=  828 fps= 23 q=33.0 size=    1917kB time=27.40 bitrate= 573.1kbits/s    frame=  840 fps= 23 q=32.0 size=    1941kB time=27.80 bitrate= 571.9kbits/s    frame=  852 fps= 23 q=32.0 size=    1967kB time=28.20 bitrate= 571.3kbits/s    frame=  864 fps= 23 q=32.0 size=    1992kB time=28.60 bitrate= 570.6kbits/s    frame=  876 fps= 23 q=32.0 size=    2017kB time=29.00 bitrate= 569.6kbits/s    frame=  888 fps= 23 q=32.0 size=    2040kB time=29.40 bitrate= 568.6kbits/s    frame=  900 fps= 23 q=32.0 size=    2065kB time=29.80 bitrate= 567.7kbits/s    frame=  913 fps= 23 q=33.0 size=    2089kB time=30.23 bitrate= 566.1kbits/s    frame=  924 fps= 23 q=32.0 size=    2112kB time=30.60 bitrate= 565.4kbits/s    frame=  936 fps= 23 q=33.0 size=    2138kB time=31.00 bitrate= 565.0kbits/s    frame=  947 fps= 23 q=32.0 size=    2161kB time=31.37 bitrate= 564.5kbits/s    frame=  960 fps= 23 q=33.0 size=    2190kB time=31.80 bitrate= 564.3kbits/s    frame=  973 fps= 23 q=34.0 size=    2219kB time=32.23 bitrate= 564.0kbits/s    frame=  985 fps= 23 q=33.0 size=    2242kB time=32.63 bitrate= 562.8kbits/s    frame=  997 fps= 23 q=34.0 size=    2266kB time=33.03 bitrate= 561.9kbits/s    frame= 1010 fps= 23 q=35.0 size=    2312kB time=33.47 bitrate= 566.0kbits/s    frame= 1022 fps= 23 q=34.0 size=    2340kB time=33.87 bitrate= 565.9kbits/s    frame= 1035 fps= 23 q=34.0 size=    2366kB time=34.30 bitrate= 565.0kbits/s    frame= 1047 fps= 23 q=33.0 size=    2392kB time=34.70 bitrate= 564.6kbits/s    frame= 1059 fps= 23 q=33.0 size=    2417kB time=35.10 bitrate= 564.2kbits/s    frame= 1071 fps= 23 q=33.0 size=    2441kB time=35.50 bitrate= 563.2kbits/s    frame= 1085 fps= 23 q=31.0 size=    2464kB time=35.97 bitrate= 561.1kbits/s    frame= 1098 fps= 23 q=32.0 size=    2491kB time=36.40 bitrate= 560.6kbits/s    frame= 1110 fps= 23 q=32.0 size=    2516kB time=36.80 bitrate= 560.2kbits/s    frame= 1121 fps= 23 q=31.0 size=    2538kB time=37.17 bitrate= 559.5kbits/s    frame= 1133 fps= 23 q=32.0 size=    2563kB time=37.57 bitrate= 559.0kbits/s    frame= 1146 fps= 23 q=33.0 size=    2593kB time=38.00 bitrate= 558.9kbits/s    frame= 1159 fps= 23 q=35.0 size=    2621kB time=38.43 bitrate= 558.7kbits/s    frame= 1171 fps= 23 q=35.0 size=    2650kB time=38.83 bitrate= 559.0kbits/s    frame= 1184 fps= 23 q=35.0 size=    2680kB time=39.27 bitrate= 559.1kbits/s    frame= 1196 fps= 23 q=35.0 size=    2706kB time=39.67 bitrate= 558.9kbits/s    frame= 1207 fps= 23 q=36.0 size=    2736kB time=40.03 bitrate= 559.8kbits/s    frame= 1219 fps= 23 q=36.0 size=    2767kB time=40.43 bitrate= 560.6kbits/s    frame= 1230 fps= 23 q=35.0 size=    2796kB time=40.80 bitrate= 561.3kbits/s    frame= 1242 fps= 23 q=36.0 size=    2831kB time=41.20 bitrate= 562.8kbits/s    frame= 1254 fps= 23 q=31.0 size=    2860kB time=41.60 bitrate= 563.2kbits/s    frame= 1268 fps= 23 q=36.0 size=    2915kB time=42.07 bitrate= 567.6kbits/s    frame= 1280 fps= 23 q=36.0 size=    2946kB time=42.47 bitrate= 568.4kbits/s    frame= 1292 fps= 23 q=36.0 size=    2981kB time=42.87 bitrate= 569.8kbits/s    frame= 1304 fps= 23 q=36.0 size=    3016kB time=43.27 bitrate= 571.1kbits/s    frame= 1316 fps= 23 q=35.0 size=    3047kB time=43.67 bitrate= 571.7kbits/s    frame= 1328 fps= 23 q=35.0 size=    3079kB time=44.07 bitrate= 572.4kbits/s    frame= 1340 fps= 23 q=35.0 size=    3112kB time=44.47 bitrate= 573.4kbits/s    frame= 1352 fps= 23 q=35.0 size=    3142kB time=44.87 bitrate= 573.7kbits/s    frame= 1364 fps= 23 q=35.0 size=    3173kB time=45.27 bitrate= 574.3kbits/s    frame= 1376 fps= 23 q=36.0 size=    3205kB time=45.67 bitrate= 575.0kbits/s    frame= 1389 fps= 23 q=38.0 size=    3234kB time=46.10 bitrate= 574.7kbits/s    frame= 1398 fps= 23 q=39.0 size=    3271kB time=46.40 bitrate= 577.4kbits/s    frame= 1408 fps= 23 q=37.0 size=    3306kB time=46.73 bitrate= 579.5kbits/s    frame= 1419 fps= 23 q=34.0 size=    3333kB time=47.10 bitrate= 579.6kbits/s    frame= 1430 fps= 23 q=35.0 size=    3362kB time=47.47 bitrate= 580.2kbits/s    frame= 1441 fps= 23 q=35.0 size=    3390kB time=47.83 bitrate= 580.5kbits/s    frame= 1453 fps= 23 q=34.0 size=    3417kB time=48.23 bitrate= 580.4kbits/s    frame= 1465 fps= 23 q=34.0 size=    3445kB time=48.63 bitrate= 580.2kbits/s    frame= 1477 fps= 23 q=34.0 size=    3474kB time=49.03 bitrate= 580.4kbits/s    frame= 1489 fps= 23 q=34.0 size=    3501kB time=49.43 bitrate= 580.2kbits/s    frame= 1502 fps= 23 q=34.0 size=    3527kB time=49.87 bitrate= 579.5kbits/s    frame= 1517 fps= 23 q=32.0 size=    3576kB time=50.37 bitrate= 581.7kbits/s    frame= 1530 fps= 23 q=33.0 size=    3607kB time=50.80 bitrate= 581.7kbits/s    frame= 1543 fps= 23 q=34.0 size=    3632kB time=51.23 bitrate= 580.8kbits/s    frame= 1555 fps= 23 q=35.0 size=    3656kB time=51.63 bitrate= 580.1kbits/s    frame= 1566 fps= 23 q=35.0 size=    3691kB time=52.00 bitrate= 581.4kbits/s    frame= 1577 fps= 23 q=33.0 size=    3717kB time=52.37 bitrate= 581.5kbits/s    frame= 1589 fps= 23 q=32.0 size=    3746kB time=52.77 bitrate= 581.5kbits/s    frame= 1601 fps= 23 q=31.0 size=    3772kB time=53.17 bitrate= 581.2kbits/s    frame= 1612 fps= 23 q=33.0 size=    3796kB time=53.53 bitrate= 580.9kbits/s    frame= 1623 fps= 23 q=33.0 size=    3820kB time=53.90 bitrate= 580.6kbits/s    frame= 1635 fps= 23 q=33.0 size=    3847kB time=54.30 bitrate= 580.4kbits/s    frame= 1647 fps= 23 q=33.0 size=    3874kB time=54.70 bitrate= 580.2kbits/s    frame= 1658 fps= 23 q=32.0 size=    3899kB time=55.07 bitrate= 580.1kbits/s    frame= 1670 fps= 23 q=32.0 size=    3925kB time=55.47 bitrate= 579.6kbits/s    frame= 1682 fps= 23 q=32.0 size=    3950kB time=55.87 bitrate= 579.1kbits/s    frame= 1693 fps= 23 q=31.0 size=    3971kB time=56.23 bitrate= 578.5kbits/s    frame= 1705 fps= 23 q=31.0 size=    3995kB time=56.63 bitrate= 577.9kbits/s    frame= 1717 fps= 23 q=32.0 size=    4021kB time=57.03 bitrate= 577.5kbits/s    frame= 1729 fps= 23 q=33.0 size=    4045kB time=57.43 bitrate= 576.9kbits/s    frame= 1740 fps= 23 q=35.0 size=    4074kB time=57.80 bitrate= 577.4kbits/s    frame= 1751 fps= 23 q=36.0 size=    4103kB time=58.17 bitrate= 577.9kbits/s    frame= 1764 fps= 23 q=35.0 size=    4153kB time=58.60 bitrate= 580.6kbits/s    frame= 1776 fps= 23 q=35.0 size=    4182kB time=59.00 bitrate= 580.6kbits/s    frame= 1788 fps= 23 q=36.0 size=    4213kB time=59.40 bitrate= 581.1kbits/s    frame= 1799 fps= 23 q=35.0 size=    4244kB time=59.77 bitrate= 581.8kbits/s    frame= 1809 fps= 23 q=37.0 size=    4277kB time=60.10 bitrate= 583.0kbits/s    frame= 1820 fps= 23 q=35.0 size=    4306kB time=60.47 bitrate= 583.4kbits/s    frame= 1832 fps= 23 q=34.0 size=    4338kB time=60.87 bitrate= 583.9kbits/s    frame= 1844 fps= 23 q=34.0 size=    4366kB time=61.27 bitrate= 583.8kbits/s    frame= 1855 fps= 23 q=33.0 size=    4394kB time=61.63 bitrate= 584.1kbits/s    frame= 1866 fps= 23 q=35.0 size=    4420kB time=62.00 bitrate= 584.1kbits/s    frame= 1877 fps= 23 q=35.0 size=    4451kB time=62.37 bitrate= 584.7kbits/s    frame= 1888 fps= 23 q=33.0 size=    4479kB time=62.73 bitrate= 584.9kbits/s    frame= 1900 fps= 23 q=33.0 size=    4504kB time=63.13 bitrate= 584.5kbits/s    frame= 1912 fps= 23 q=33.0 size=    4532kB time=63.53 bitrate= 584.4kbits/s    frame= 1923 fps= 23 q=32.0 size=    4556kB time=63.90 bitrate= 584.1kbits/s    frame= 1935 fps= 23 q=32.0 size=    4585kB time=64.30 bitrate= 584.1kbits/s    frame= 1947 fps= 23 q=32.0 size=    4613kB time=64.70 bitrate= 584.1kbits/s    frame= 1959 fps= 23 q=32.0 size=    4641kB time=65.10 bitrate= 584.1kbits/s    frame= 1971 fps= 23 q=32.0 size=    4666kB time=65.50 bitrate= 583.6kbits/s    frame= 1983 fps= 23 q=32.0 size=    4693kB time=65.90 bitrate= 583.4kbits/s    frame= 1994 fps= 23 q=35.0 size=    4721kB time=66.27 bitrate= 583.6kbits/s    frame= 2006 fps= 23 q=35.0 size=    4764kB time=66.67 bitrate= 585.4kbits/s    frame= 2019 fps= 23 q=34.0 size=    4788kB time=67.10 bitrate= 584.6kbits/s    frame= 2031 fps= 23 q=33.0 size=    4814kB time=67.50 bitrate= 584.3kbits/s    frame= 2043 fps= 23 q=33.0 size=    4841kB time=67.90 bitrate= 584.0kbits/s    frame= 2055 fps= 23 q=34.0 size=    4868kB time=68.30 bitrate= 583.9kbits/s    frame= 2067 fps= 23 q=34.0 size=    4896kB time=68.70 bitrate= 583.9kbits/s    frame= 2078 fps= 23 q=33.0 size=    4922kB time=69.07 bitrate= 583.7kbits/s    frame= 2090 fps= 23 q=33.0 size=    4947kB time=69.47 bitrate= 583.4kbits/s    frame= 2102 fps= 23 q=33.0 size=    4976kB time=69.87 bitrate= 583.4kbits/s    frame= 2114 fps= 23 q=33.0 size=    5004kB time=70.27 bitrate= 583.4kbits/s    frame= 2126 fps= 23 q=34.0 size=    5029kB time=70.67 bitrate= 583.0kbits/s    frame= 2139 fps= 23 q=36.0 size=    5060kB time=71.10 bitrate= 583.0kbits/s    frame= 2151 fps= 23 q=37.0 size=    5089kB time=71.50 bitrate= 583.0kbits/s    frame= 2162 fps= 23 q=37.0 size=    5119kB time=71.87 bitrate= 583.6kbits/s    frame= 2174 fps= 23 q=38.0 size=    5156kB time=72.27 bitrate= 584.5kbits/s    frame= 2186 fps= 23 q=38.0 size=    5195kB time=72.67 bitrate= 585.7kbits/s    frame= 2198 fps= 23 q=38.0 size=    5232kB time=73.07 bitrate= 586.6kbits/s    frame= 2210 fps= 23 q=38.0 size=    5268kB time=73.47 bitrate= 587.4kbits/s    frame= 2222 fps= 23 q=38.0 size=    5304kB time=73.87 bitrate= 588.3kbits/s    frame= 2234 fps= 23 q=38.0 size=    5341kB time=74.27 bitrate= 589.1kbits/s    frame= 2246 fps= 23 q=38.0 size=    5381kB time=74.67 bitrate= 590.3kbits/s    frame= 2259 fps= 23 q=37.0 size=    5434kB time=75.10 bitrate= 592.8kbits/s    frame= 2270 fps= 23 q=38.0 size=    5468kB time=75.47 bitrate= 593.5kbits/s    frame= 2281 fps= 23 q=37.0 size=    5498kB time=75.83 bitrate= 594.0kbits/s    frame= 2292 fps= 23 q=36.0 size=    5528kB time=76.20 bitrate= 594.3kbits/s    frame= 2303 fps= 23 q=35.0 size=    5557kB time=76.57 bitrate= 594.6kbits/s    frame= 2314 fps= 23 q=37.0 size=    5588kB time=76.93 bitrate= 595.0kbits/s    frame= 2325 fps= 23 q=37.0 size=    5620kB time=77.30 bitrate= 595.6kbits/s    frame= 2336 fps= 23 q=35.0 size=    5652kB time=77.67 bitrate= 596.2kbits/s    frame= 2348 fps= 23 q=35.0 size=    5682kB time=78.07 bitrate= 596.3kbits/s    frame= 2360 fps= 23 q=35.0 size=    5715kB time=78.47 bitrate= 596.6kbits/s    frame= 2371 fps= 23 q=33.0 size=    5743kB time=78.83 bitrate= 596.8kbits/s    frame= 2382 fps= 23 q=35.0 size=    5771kB time=79.20 bitrate= 597.0kbits/s    frame= 2393 fps= 23 q=34.0 size=    5797kB time=79.57 bitrate= 596.9kbits/s    frame= 2404 fps= 23 q=33.0 size=    5826kB time=79.93 bitrate= 597.1kbits/s    frame= 2416 fps= 23 q=33.0 size=    5855kB time=80.33 bitrate= 597.0kbits/s    frame= 2428 fps= 23 q=33.0 size=    5882kB time=80.73 bitrate= 596.9kbits/s    frame= 2439 fps= 23 q=32.0 size=    5907kB time=81.10 bitrate= 596.7kbits/s    frame= 2450 fps= 23 q=34.0 size=    5934kB time=81.47 bitrate= 596.7kbits/s    frame= 2462 fps= 23 q=34.0 size=    5960kB time=81.87 bitrate= 596.3kbits/s    frame= 2473 fps= 23 q=34.0 size=    5986kB time=82.23 bitrate= 596.3kbits/s    frame= 2485 fps= 23 q=33.0 size=    6012kB time=82.63 bitrate= 596.0kbits/s    frame= 2497 fps= 23 q=33.0 size=    6038kB time=83.03 bitrate= 595.7kbits/s    frame= 2510 fps= 23 q=34.0 size=    6083kB time=83.47 bitrate= 597.0kbits/s    frame= 2522 fps= 23 q=32.0 size=    6106kB time=83.87 bitrate= 596.4kbits/s    frame= 2534 fps= 23 q=32.0 size=    6132kB time=84.27 bitrate= 596.1kbits/s    frame= 2546 fps= 23 q=32.0 size=    6157kB time=84.67 bitrate= 595.7kbits/s    frame= 2558 fps= 23 q=32.0 size=    6187kB time=85.07 bitrate= 595.8kbits/s    frame= 2569 fps= 23 q=31.0 size=    6210kB time=85.43 bitrate= 595.4kbits/s    frame= 2581 fps= 23 q=31.0 size=    6234kB time=85.83 bitrate= 595.0kbits/s    frame= 2593 fps= 23 q=32.0 size=    6261kB time=86.23 bitrate= 594.8kbits/s    frame= 2605 fps= 23 q=31.0 size=    6289kB time=86.63 bitrate= 594.7kbits/s    frame= 2616 fps= 23 q=33.0 size=    6314kB time=87.00 bitrate= 594.6kbits/s    frame= 2628 fps= 23 q=33.0 size=    6339kB time=87.40 bitrate= 594.1kbits/s    frame= 2639 fps= 23 q=33.0 size=    6364kB time=87.77 bitrate= 594.0kbits/s    frame= 2651 fps= 23 q=33.0 size=    6388kB time=88.17 bitrate= 593.5kbits/s    frame= 2663 fps= 23 q=34.0 size=    6417kB time=88.57 bitrate= 593.5kbits/s    frame= 2675 fps= 23 q=34.0 size=    6443kB time=88.97 bitrate= 593.3kbits/s    frame= 2687 fps= 23 q=35.0 size=    6471kB time=89.37 bitrate= 593.1kbits/s    frame= 2699 fps= 23 q=35.0 size=    6502kB time=89.77 bitrate= 593.4kbits/s    frame= 2711 fps= 23 q=35.0 size=    6530kB time=90.17 bitrate= 593.3kbits/s    frame= 2723 fps= 23 q=35.0 size=    6559kB time=90.57 bitrate= 593.3kbits/s    frame= 2735 fps= 23 q=34.0 size=    6586kB time=90.97 bitrate= 593.1kbits/s    frame= 2747 fps= 23 q=34.0 size=    6612kB time=91.37 bitrate= 592.9kbits/s    frame= 2761 fps= 23 q=37.0 size=    6664kB time=91.83 bitrate= 594.5kbits/s    frame= 2773 fps= 23 q=35.0 size=    6691kB time=92.23 bitrate= 594.3kbits/s    frame= 2785 fps= 23 q=34.0 size=    6716kB time=92.63 bitrate= 594.0kbits/s    frame= 2797 fps= 23 q=33.0 size=    6744kB time=93.03 bitrate= 593.8kbits/s    frame= 2809 fps= 23 q=33.0 size=    6771kB time=93.43 bitrate= 593.6kbits/s    frame= 2821 fps= 23 q=33.0 size=    6797kB time=93.83 bitrate= 593.4kbits/s    frame= 2833 fps= 23 q=33.0 size=    6824kB time=94.23 bitrate= 593.3kbits/s    frame= 2845 fps= 23 q=34.0 size=    6851kB time=94.63 bitrate= 593.0kbits/s    frame= 2857 fps= 23 q=34.0 size=    6877kB time=95.03 bitrate= 592.8kbits/s    frame= 2868 fps= 23 q=33.0 size=    6903kB time=95.40 bitrate= 592.7kbits/s    frame= 2880 fps= 23 q=33.0 size=    6933kB time=95.80 bitrate= 592.8kbits/s    frame= 2892 fps= 23 q=33.0 size=    6961kB time=96.20 bitrate= 592.8kbits/s    frame= 2904 fps= 23 q=33.0 size=    6989kB time=96.60 bitrate= 592.6kbits/s    frame= 2916 fps= 23 q=33.0 size=    7014kB time=97.00 bitrate= 592.4kbits/s    frame= 2927 fps= 23 q=32.0 size=    7039kB time=97.37 bitrate= 592.2kbits/s    frame= 2939 fps= 23 q=32.0 size=    7063kB time=97.77 bitrate= 591.8kbits/s    frame= 2950 fps= 23 q=34.0 size=    7093kB time=98.13 bitrate= 592.1kbits/s    frame= 2962 fps= 23 q=34.0 size=    7120kB time=98.53 bitrate= 591.9kbits/s    frame= 2973 fps= 23 q=34.0 size=    7145kB time=98.90 bitrate= 591.8kbits/s    frame= 2985 fps= 23 q=34.0 size=    7174kB time=99.30 bitrate= 591.8kbits/s    frame= 2997 fps= 23 q=34.0 size=    7201kB time=99.70 bitrate= 591.7kbits/s    frame= 3010 fps= 23 q=34.0 size=    7248kB time=100.13 bitrate= 592.9kbits/s    frame= 3022 fps= 23 q=32.0 size=    7272kB time=100.53 bitrate= 592.5kbits/s    frame= 3034 fps= 23 q=32.0 size=    7296kB time=100.93 bitrate= 592.2kbits/s    frame= 3046 fps= 23 q=32.0 size=    7323kB time=101.33 bitrate= 592.0kbits/s    frame= 3059 fps= 23 q=33.0 size=    7350kB time=101.77 bitrate= 591.7kbits/s    frame= 3071 fps= 23 q=33.0 size=    7375kB time=102.17 bitrate= 591.4kbits/s    frame= 3083 fps= 23 q=34.0 size=    7400kB time=102.57 bitrate= 591.0kbits/s    frame= 3094 fps= 23 q=34.0 size=    7427kB time=102.93 bitrate= 591.1kbits/s    frame= 3106 fps= 23 q=34.0 size=    7455kB time=103.33 bitrate= 591.0kbits/s    frame= 3118 fps= 23 q=34.0 size=    7485kB time=103.73 bitrate= 591.1kbits/s    frame= 3130 fps= 23 q=33.0 size=    7516kB time=104.13 bitrate= 591.3kbits/s    frame= 3142 fps= 23 q=33.0 size=    7542kB time=104.53 bitrate= 591.0kbits/s    frame= 3154 fps= 23 q=33.0 size=    7571kB time=104.93 bitrate= 591.0kbits/s    frame= 3166 fps= 23 q=33.0 size=    7595kB time=105.33 bitrate= 590.7kbits/s    frame= 3177 fps= 23 q=31.0 size=    7621kB time=105.70 bitrate= 590.6kbits/s    frame= 3189 fps= 23 q=31.0 size=    7645kB time=106.10 bitrate= 590.3kbits/s    frame= 3201 fps= 23 q=30.0 size=    7668kB time=106.50 bitrate= 589.9kbits/s    frame= 3213 fps= 23 q=30.0 size=    7693kB time=106.90 bitrate= 589.5kbits/s    frame= 3225 fps= 23 q=31.0 size=    7717kB time=107.30 bitrate= 589.2kbits/s    frame= 3237 fps= 23 q=31.0 size=    7745kB time=107.70 bitrate= 589.1kbits/s    frame= 3250 fps= 23 q=32.0 size=    7771kB time=108.13 bitrate= 588.7kbits/s    frame= 3264 fps= 23 q=33.0 size=    7815kB time=108.60 bitrate= 589.5kbits/s    frame= 3276 fps= 23 q=33.0 size=    7840kB time=109.00 bitrate= 589.2kbits/s    frame= 3288 fps= 23 q=33.0 size=    7867kB time=109.40 bitrate= 589.1kbits/s    frame= 3299 fps= 23 q=32.0 size=    7893kB time=109.77 bitrate= 589.1kbits/s    frame= 3311 fps= 23 q=32.0 size=    7921kB time=110.17 bitrate= 589.0kbits/s    frame= 3323 fps= 23 q=32.0 size=    7945kB time=110.57 bitrate= 588.6kbits/s    frame= 3335 fps= 23 q=33.0 size=    7974kB time=110.97 bitrate= 588.7kbits/s    frame= 3347 fps= 23 q=33.0 size=    8002kB time=111.37 bitrate= 588.6kbits/s    frame= 3359 fps= 23 q=32.0 size=    8031kB time=111.77 bitrate= 588.6kbits/s    frame= 3370 fps= 23 q=34.0 size=    8058kB time=112.13 bitrate= 588.7kbits/s    frame= 3381 fps= 23 q=34.0 size=    8084kB time=112.50 bitrate= 588.7kbits/s    frame= 3393 fps= 23 q=33.0 size=    8108kB time=112.90 bitrate= 588.3kbits/s    frame= 3404 fps= 23 q=33.0 size=    8134kB time=113.27 bitrate= 588.3kbits/s    frame= 3416 fps= 23 q=34.0 size=    8159kB time=113.67 bitrate= 588.0kbits/s    frame= 3428 fps= 23 q=36.0 size=    8183kB time=114.07 bitrate= 587.7kbits/s    frame= 3440 fps= 23 q=38.0 size=    8216kB time=114.47 bitrate= 588.0kbits/s    frame= 3452 fps= 23 q=38.0 size=    8256kB time=114.87 bitrate= 588.8kbits/s    frame= 3464 fps= 23 q=38.0 size=    8296kB time=115.27 bitrate= 589.6kbits/s    frame= 3476 fps= 23 q=38.0 size=    8333kB time=115.67 bitrate= 590.1kbits/s    frame= 3488 fps= 23 q=38.0 size=    8369kB time=116.07 bitrate= 590.7kbits/s    frame= 3499 fps= 23 q=37.0 size=    8402kB time=116.43 bitrate= 591.2kbits/s    frame= 3511 fps= 23 q=40.0 size=    8455kB time=116.83 bitrate= 592.8kbits/s    frame= 3523 fps= 23 q=39.0 size=    8490kB time=117.23 bitrate= 593.3kbits/s    frame= 3534 fps= 23 q=38.0 size=    8524kB time=117.60 bitrate= 593.8kbits/s    frame= 3546 fps= 23 q=38.0 size=    8561kB time=118.00 bitrate= 594.4kbits/s    frame= 3558 fps= 23 q=38.0 size=    8599kB time=118.40 bitrate= 594.9kbits/s    frame= 3570 fps= 23 q=38.0 size=    8635kB time=118.80 bitrate= 595.4kbits/s    frame= 3582 fps= 23 q=38.0 size=    8671kB time=119.20 bitrate= 595.9kbits/s    frame= 3594 fps= 23 q=38.0 size=    8707kB time=119.60 bitrate= 596.4kbits/s    frame= 3606 fps= 23 q=38.0 size=    8744kB time=120.00 bitrate= 596.9kbits/s    frame= 3618 fps= 23 q=37.0 size=    8782kB time=120.40 bitrate= 597.5kbits/s    frame= 3630 fps= 23 q=37.0 size=    8818kB time=120.80 bitrate= 598.0kbits/s    frame= 3640 fps= 23 q=37.0 size=    8847kB time=121.13 bitrate= 598.3kbits/s    frame= 3650 fps= 23 q=35.0 size=    8877kB time=121.47 bitrate= 598.7kbits/s    frame= 3662 fps= 23 q=34.0 size=    8909kB time=121.87 bitrate= 598.9kbits/s    frame= 3674 fps= 23 q=33.0 size=    8939kB time=122.27 bitrate= 598.9kbits/s    frame= 3686 fps= 23 q=33.0 size=    8969kB time=122.67 bitrate= 599.0kbits/s    frame= 3698 fps= 23 q=33.0 size=    8996kB time=123.07 bitrate= 598.8kbits/s    frame= 3710 fps= 23 q=33.0 size=    9023kB time=123.47 bitrate= 598.7kbits/s    frame= 3722 fps= 23 q=33.0 size=    9054kB time=123.87 bitrate= 598.8kbits/s    frame= 3734 fps= 23 q=32.0 size=    9083kB time=124.27 bitrate= 598.8kbits/s    frame= 3746 fps= 23 q=32.0 size=    9108kB time=124.67 bitrate= 598.5kbits/s    frame= 3759 fps= 23 q=33.0 size=    9154kB time=125.10 bitrate= 599.5kbits/s    frame= 3772 fps= 23 q=33.0 size=    9186kB time=125.53 bitrate= 599.4kbits/s    frame= 3784 fps= 23 q=32.0 size=    9212kB time=125.93 bitrate= 599.3kbits/s    frame= 3796 fps= 23 q=32.0 size=    9237kB time=126.33 bitrate= 598.9kbits/s    frame= 3808 fps= 23 q=32.0 size=    9266kB time=126.73 bitrate= 599.0kbits/s    frame= 3820 fps= 23 q=32.0 size=    9291kB time=127.13 bitrate= 598.7kbits/s    frame= 3832 fps= 23 q=32.0 size=    9319kB time=127.53 bitrate= 598.6kbits/s    frame= 3844 fps= 23 q=32.0 size=    9348kB time=127.93 bitrate= 598.6kbits/s    frame= 3856 fps= 23 q=31.0 size=    9374kB time=128.33 bitrate= 598.4kbits/s    frame= 3868 fps= 23 q=31.0 size=    9402kB time=128.73 bitrate= 598.3kbits/s    frame= 3880 fps= 23 q=31.0 size=    9430kB time=129.13 bitrate= 598.3kbits/s    frame= 3881 fps= 23 q=-1.0 Lsize=    9543kB time=129.30 bitrate= 604.6kbits/s    
video:7925kB audio:1517kB global headers:0kB muxing overhead 1.064202%
[libx264 @ 0x1a90230]frame I:16    Avg QP:26.73  size: 22086
[libx264 @ 0x1a90230]frame P:979   Avg QP:30.53  size:  3924
[libx264 @ 0x1a90230]frame B:2886  Avg QP:33.18  size:  1358
[libx264 @ 0x1a90230]consecutive B-frames:  0.4%  0.1%  0.1% 99.5%
[libx264 @ 0x1a90230]mb I  I16..4: 23.7% 65.5% 10.8%
[libx264 @ 0x1a90230]mb P  I16..4:  1.8%  2.3%  0.2%  P16..4: 37.6%  2.2%  0.2%  0.0%  0.0%    skip:55.8%
[libx264 @ 0x1a90230]mb B  I16..4:  0.1%  0.2%  0.0%  B16..8: 30.9%  0.1%  0.1%  direct: 0.1%  skip:68.6%  L0:40.3% L1:58.6% BI: 1.1%
[libx264 @ 0x1a90230]8x8 transform intra:57.5% inter:91.8%
[libx264 @ 0x1a90230]direct mvs  spatial:33.3% temporal:66.7%
[libx264 @ 0x1a90230]coded y,uvDC,uvAC intra: 25.1% 39.6% 4.9% inter: 1.7% 2.1% 0.0%
[libx264 @ 0x1a90230]i16 v,h,dc,p: 38% 29% 16% 17%
[libx264 @ 0x1a90230]i8 v,h,dc,ddl,ddr,vr,hd,vl,hu: 17% 12% 43%  4%  5%  5%  4%  4%  4%
[libx264 @ 0x1a90230]i4 v,h,dc,ddl,ddr,vr,hd,vl,hu: 27% 25% 21%  4%  5%  7%  4%  4%  2%
[libx264 @ 0x1a90230]ref P L0: 62.5% 19.5% 13.3%  4.7%  0.0%
[libx264 @ 0x1a90230]ref B L0: 75.0% 19.5%  4.5%  1.0%
[libx264 @ 0x1a90230]ref B L1: 88.0% 12.0%
[libx264 @ 0x1a90230]kb/s:501.82
 patching stco atom...
 patching stco atom...
 writing ftyp atom...
 writing moov atom...
 copying rest of file...
FFmpeg version SVN-r0.5.9-4:0.5.9-0ubuntu0.10.04.3, Copyright (c) 2000-2009 Fabrice Bellard, et al.
  configuration: --extra-version=4:0.5.9-0ubuntu0.10.04.3 --prefix=/usr --enable-avfilter --enable-avfilter-lavf --enable-vdpau --enable-bzlib --enable-libgsm --enable-libschroedinger --enable-libspeex --enable-libtheora --enable-libvorbis --enable-pthreads --enable-zlib --disable-stripping --disable-vhook --enable-runtime-cpudetect --enable-gpl --enable-postproc --enable-swscale --enable-x11grab --enable-libdc1394 --enable-shared --disable-static
  libavutil     49.15. 0 / 49.15. 0
  libavcodec    52.20. 1 / 52.20. 1
  libavformat   52.31. 0 / 52.31. 0
  libavdevice   52. 1. 0 / 52. 1. 0
  libavfilter    0. 4. 0 /  0. 4. 0
  libswscale     0. 7. 1 /  0. 7. 1
  libpostproc   51. 2. 0 / 51. 2. 0
  built on Jan 24 2013 19:42:59, gcc: 4.4.3

Seems stream 0 codec frame rate differs from container frame rate: 60.00 (60/1) -> 30.00 (30/1)
Input #0, mov,mp4,m4a,3gp,3g2,mj2, from '/var/www/search-interface/media/video/obama-climate-change.mp4':
  Duration: 00:02:09.43, start: 0.000000, bitrate: 603 kb/s
    Stream #0.0(und): Video: h264, yuv420p, 1280x720, 30 tbr, 30 tbn, 60 tbc
    Stream #0.1(und): Audio: mp3, 44100 Hz, stereo, s16, 96 kb/s
Output #0, image2, to '/var/www/search-interface/media/video/thumb/obama-climate-change.mp4.jpg':
    Stream #0.0(und): Video: mjpeg, yuvj420p, 1280x720, q=2-31, 200 kb/s, 90k tbn, 30 tbc
Stream mapping:
  Stream #0.0 -> #0.0
Press [q] to stop encoding
frame=    1 fps=  0 q=6.6 Lsize=      -0kB time=0.03 bitrate=  -5.3kbits/s    
video:47kB audio:0kB global headers:0kB muxing overhead -100.045815%
